<?xml version="1.0" encoding="utf-8"?>
<svg viewBox="143.582 135.584 18.411 19.212" xmlns="http://www.w3.org/2000/svg">
  <path d="M 159.925 150.076 L 156.135 146.853 C 155.743 146.5 155.324 146.339 154.986 146.354 C 155.881 145.306 156.421 143.947 156.421 142.461 C 156.421 139.147 153.735 136.461 150.421 136.461 C 147.107 136.461 144.421 139.147 144.421 142.461 C 144.421 145.775 147.107 148.461 150.421 148.461 C 151.907 148.461 153.266 147.921 154.314 147.026 C 154.298 147.364 154.46 147.783 154.813 148.175 L 158.036 151.965 C 158.588 152.578 159.489 152.63 160.039 152.08 C 160.589 151.53 160.537 150.628 159.924 150.077 L 159.925 150.076 Z M 150.421 146.46 C 148.212 146.46 146.421 144.669 146.421 142.46 C 146.421 140.251 148.212 138.46 150.421 138.46 C 152.63 138.46 154.421 140.251 154.421 142.46 C 154.421 144.669 152.63 146.46 150.421 146.46 Z" style="fill: rgb(255, 255, 255);"/>
</svg>